<?xml version="1.0" standalone="no"?>
<!DOCTYPE svg PUBLIC "-//W3C//DTD SVG 20010904//EN"
 "http://www.w3.org/TR/2001/REC-SVG-20010904/DTD/svg10.dtd">
<svg version="1.0" xmlns="http://www.w3.org/2000/svg"
 width="856.000000pt" height="856.000000pt" viewBox="0 0 856.000000 856.000000"
 preserveAspectRatio="xMidYMid meet">
<metadata>
Created by potrace 1.14, written by Peter Selinger 2001-2017
</metadata>
<g transform="translate(0.000000,856.000000) scale(0.100000,-0.100000)"
fill="#000000" stroke="none">
<path d="M4438 8195 c-2 -2 -23 -6 -48 -8 -25 -3 -45 -6 -45 -7 0 -1 -9 -3
-20 -5 -79 -11 -226 -58 -317 -99 -31 -14 -67 -31 -80 -36 -21 -9 -119 -61
-231 -122 -23 -13 -44 -25 -47 -28 -6 -6 -137 -70 -210 -103 -51 -23 -141 -48
-215 -61 -53 -10 -166 -16 -350 -21 -216 -5 -295 -11 -395 -31 -234 -46 -422
-141 -546 -277 -62 -68 -137 -201 -149 -267 0 -3 -6 -27 -13 -55 -7 -27 -14
-68 -17 -90 -7 -53 -9 -61 -29 -162 -11 -55 -46 -113 -83 -137 -32 -21 -120
-49 -223 -70 -14 -3 -45 -10 -70 -17 -25 -6 -53 -13 -62 -15 -45 -10 -56 -13
-108 -27 -54 -15 -94 -28 -135 -46 -11 -5 -40 -17 -65 -27 -132 -55 -279 -183
-357 -309 -16 -26 -56 -109 -55 -115 0 -3 -5 -14 -11 -25 -13 -24 -45 -146
-53 -200 -3 -22 -9 -58 -13 -80 -4 -22 -7 -57 -6 -77 0 -21 -2 -38 -5 -38 -3
0 -5 -28 -6 -63 -1 -86 -14 -296 -19 -321 -3 -12 -7 -39 -9 -61 -3 -22 -5 -40
-6 -40 -1 0 -4 -11 -6 -25 -3 -14 -9 -43 -15 -65 -6 -22 -12 -47 -14 -55 -2
-8 -8 -27 -14 -42 -6 -16 -8 -28 -5 -28 2 0 -2 -13 -10 -29 -8 -15 -17 -39
-20 -52 -2 -13 -17 -53 -31 -89 -15 -36 -28 -69 -29 -75 -2 -5 -8 -21 -13 -35
-6 -14 -40 -99 -75 -190 -36 -91 -69 -174 -73 -185 -4 -11 -9 -24 -10 -30 -2
-5 -12 -35 -23 -65 -25 -71 -60 -196 -68 -246 -3 -21 -7 -41 -9 -44 -22 -35
-26 -391 -6 -480 7 -30 14 -60 15 -67 1 -7 5 -16 9 -19 4 -4 7 -14 7 -23 1 -9
9 -34 20 -56 11 -22 19 -44 20 -49 0 -18 91 -143 132 -182 66 -64 130 -104
283 -180 150 -74 182 -99 219 -172 49 -98 65 -197 81 -507 11 -200 69 -500
132 -670 14 -38 27 -80 30 -93 3 -12 9 -22 14 -22 5 0 9 -7 9 -15 0 -22 66
-138 108 -190 129 -161 281 -252 481 -289 69 -12 292 -14 376 -3 17 2 57 8 90
12 33 4 69 9 80 10 114 16 159 19 280 19 129 0 249 -9 267 -21 5 -2 18 -6 30
-8 48 -9 113 -28 123 -36 5 -5 17 -9 27 -9 10 0 26 -4 36 -9 74 -37 106 -51
118 -51 8 0 14 -4 14 -10 0 -5 6 -10 14 -10 7 0 19 -7 26 -15 7 -8 16 -13 20
-10 5 3 11 1 14 -4 3 -5 32 -24 64 -41 31 -18 84 -51 117 -73 60 -40 314 -177
338 -181 6 -2 19 -6 27 -9 8 -3 33 -11 55 -18 132 -42 208 -53 380 -53 150 -1
191 3 300 29 39 9 77 18 85 20 8 2 32 11 52 19 21 9 41 17 45 17 36 5 179 78
258 132 98 65 186 145 275 248 145 168 196 215 270 251 43 21 83 32 117 34 28
1 55 4 60 6 14 8 193 -4 263 -16 73 -14 104 -21 165 -38 64 -18 180 -63 280
-108 49 -22 163 -68 185 -75 145 -45 257 -57 380 -41 59 7 191 44 207 58 7 6
13 7 13 4 0 -10 128 62 180 101 169 127 281 307 324 519 3 11 14 62 26 114 12
52 24 109 27 125 3 17 9 35 14 41 5 6 6 13 3 16 -3 4 10 39 29 80 53 116 84
139 342 259 197 91 349 231 438 404 36 69 50 106 61 153 3 13 8 32 11 42 11
35 25 109 30 169 7 65 7 202 1 209 -3 3 -1 11 5 19 6 7 8 13 3 13 -5 0 -9 10
-10 23 -1 50 -15 211 -18 216 -2 3 -7 33 -11 66 -3 33 -8 74 -11 90 -21 146
-23 221 -9 345 11 100 14 121 31 220 2 14 7 46 10 73 4 26 11 50 15 53 5 3 7
9 4 15 -3 5 -1 35 4 66 36 196 36 456 1 628 -75 371 -317 755 -654 1040 -60
50 -121 105 -187 167 -45 41 -110 130 -134 183 -20 43 -29 203 -14 260 25 98
32 320 13 402 -30 129 -83 228 -173 319 -53 54 -140 122 -159 125 -4 0 -14 6
-22 13 -14 12 -74 41 -140 68 -14 6 -32 14 -40 18 -14 6 -132 38 -169 45 -28
5 -95 15 -131 20 -42 6 -320 6 -370 0 -48 -5 -227 -18 -272 -19 -21 -1 -38 -3
-38 -6 0 -7 -292 -4 -360 4 -76 8 -88 11 -96 19 -4 4 -14 7 -23 7 -9 0 -25 14
-36 30 -11 16 -23 30 -27 30 -5 0 -8 5 -8 10 0 10 -57 104 -83 137 -24 31
-160 163 -168 163 -4 0 -14 6 -22 14 -34 34 -228 124 -304 141 -10 2 -49 11
-88 20 -61 15 -376 31 -387 20z m257 -310 c183 -21 356 -104 451 -215 17 -19
52 -71 79 -115 59 -96 125 -164 191 -196 27 -13 54 -24 59 -26 6 -1 28 -7 50
-13 92 -23 163 -29 350 -29 155 0 181 2 450 25 105 10 326 10 395 0 171 -23
342 -97 429 -185 63 -65 85 -91 75 -91 -3 0 -2 -6 4 -12 14 -18 32 -88 33
-134 2 -42 -11 -185 -17 -195 -13 -22 -21 -242 -11 -314 12 -92 70 -228 130
-307 43 -56 174 -186 292 -289 139 -121 186 -168 263 -264 32 -38 60 -72 63
-75 12 -10 109 -170 109 -180 0 -5 5 -10 10 -10 6 0 10 -5 10 -12 0 -6 12 -36
26 -67 25 -51 69 -171 80 -213 11 -47 22 -107 30 -163 5 -42 6 -232 0 -280 -5
-40 -16 -133 -22 -170 -1 -11 -3 -20 -4 -20 -2 0 -4 -9 -5 -20 -1 -11 -5 -37
-9 -57 -3 -21 -9 -55 -12 -75 -3 -21 -8 -48 -10 -60 -23 -133 -29 -205 -29
-358 1 -131 10 -259 20 -275 2 -3 6 -37 10 -75 4 -39 9 -79 11 -90 25 -127 20
-436 -7 -487 -5 -10 -8 -22 -5 -27 11 -17 -81 -181 -125 -223 -52 -50 -112
-97 -145 -114 -13 -7 -36 -19 -51 -27 -15 -9 -46 -23 -68 -32 -82 -36 -176
-85 -222 -116 -58 -38 -148 -131 -170 -173 -9 -17 -19 -33 -22 -36 -20 -14
-85 -201 -97 -275 -3 -22 -8 -43 -10 -46 -2 -4 -6 -24 -10 -45 -14 -88 -56
-233 -84 -291 -72 -145 -229 -257 -400 -282 -126 -19 -235 6 -445 104 -161 75
-328 128 -477 151 -16 2 -43 7 -60 10 -71 13 -337 12 -392 0 -31 -8 -56 -12
-56 -10 0 4 -89 -29 -138 -52 -79 -37 -189 -133 -302 -265 -58 -68 -171 -182
-209 -212 -94 -74 -243 -146 -368 -177 -114 -27 -147 -31 -265 -30 -130 1
-138 2 -138 9 0 3 -16 7 -36 8 -98 5 -264 81 -510 233 -114 71 -175 105 -284
161 -34 17 -107 47 -145 59 -22 7 -44 15 -50 19 -5 3 -14 6 -20 7 -5 1 -30 7
-55 14 -25 7 -52 14 -60 16 -8 1 -40 7 -70 13 -146 31 -371 33 -575 6 -16 -2
-50 -7 -75 -10 -25 -3 -56 -7 -70 -9 -50 -9 -161 -17 -232 -17 -229 0 -381 95
-474 298 -41 89 -45 98 -48 113 -2 8 -6 22 -9 30 -9 24 -27 85 -31 106 -3 10
-9 39 -15 64 -12 53 -21 97 -25 125 -2 11 -6 36 -10 55 -14 82 -17 98 -21 160
-3 36 -7 103 -9 150 -10 187 -42 385 -72 441 -8 16 -15 32 -15 36 -2 20 -31
77 -61 120 -75 110 -139 159 -318 243 -115 54 -172 89 -208 129 -38 41 -81
110 -87 138 -2 10 -8 30 -14 46 -6 15 -9 27 -6 27 2 0 -1 15 -6 33 -10 33 -13
234 -4 277 2 13 7 40 10 60 11 71 40 192 55 225 5 11 16 45 26 75 9 30 59 161
111 290 52 129 96 242 98 250 3 8 23 68 45 133 39 114 77 258 86 325 2 17 6
49 9 70 8 52 12 100 19 227 13 217 16 261 22 300 4 22 8 47 9 55 6 52 32 135
61 195 78 163 216 247 524 320 74 17 119 27 140 31 196 36 338 118 416 239 33
52 78 173 88 235 3 19 8 46 11 60 2 14 7 41 9 60 18 125 45 201 96 264 46 57
215 152 300 170 14 3 61 12 105 21 44 9 143 18 220 20 345 11 412 14 440 19
17 3 46 8 65 11 19 4 46 8 60 10 67 10 208 62 325 120 162 80 233 119 247 133
7 7 20 12 29 12 10 0 19 3 21 8 4 9 155 83 226 111 81 32 200 61 277 68 39 3
71 6 72 7 4 3 105 -2 158 -9z"/>
<path d="M4324 7156 c-43 -19 -84 -76 -89 -122 -4 -44 22 -109 68 -168 14 -18
184 -282 188 -292 4 -9 156 -241 215 -329 19 -28 34 -53 34 -56 0 -5 -43 -34
-127 -86 -13 -7 -26 -13 -29 -12 -4 0 -10 -3 -13 -8 -6 -9 -129 -83 -137 -83
-3 0 -10 -5 -17 -11 -10 -9 -250 -154 -367 -222 -19 -11 -47 -27 -62 -36 -14
-9 -75 -45 -135 -80 -59 -35 -118 -70 -130 -78 -20 -14 -23 -12 -50 29 -15 24
-31 45 -35 46 -5 2 -8 8 -8 13 0 5 -36 63 -80 129 -44 66 -80 124 -80 129 0 5
-3 11 -8 13 -4 2 -23 28 -42 58 -19 30 -39 58 -45 62 -5 4 -6 8 -2 8 4 0 -1
10 -13 22 -11 12 -20 27 -20 34 0 7 -3 14 -8 16 -4 2 -45 62 -91 133 -47 72
-114 175 -150 230 -35 55 -91 140 -123 188 -32 49 -58 91 -58 93 0 20 -72 75
-111 85 -42 11 -50 10 -95 -12 -39 -19 -54 -34 -73 -73 -22 -44 -23 -53 -13
-91 9 -35 182 -316 221 -362 6 -7 11 -15 11 -18 0 -3 26 -44 58 -93 33 -48 81
-121 107 -162 56 -87 197 -302 267 -408 26 -41 48 -78 48 -83 0 -5 4 -9 8 -9
5 0 15 -12 23 -27 7 -16 28 -49 46 -75 22 -32 28 -48 20 -52 -7 -4 -25 -15
-42 -26 -16 -11 -39 -24 -50 -30 -11 -5 -45 -25 -75 -45 -30 -19 -67 -40 -82
-46 -16 -6 -28 -15 -28 -20 0 -5 -4 -9 -8 -9 -5 0 -152 -85 -326 -190 -175
-104 -320 -190 -323 -190 -2 0 -24 -13 -48 -30 -24 -16 -48 -30 -53 -30 -9 0
-40 44 -137 195 -126 197 -189 294 -206 317 -10 15 -19 31 -19 37 0 5 -3 11
-8 13 -4 2 -23 28 -42 58 -19 30 -37 57 -41 60 -3 3 -8 10 -10 16 -2 6 -31 51
-63 101 -43 65 -69 94 -97 107 -20 10 -41 16 -46 13 -5 -3 -15 -2 -23 3 -7 4
-20 5 -29 0 -9 -4 -29 -14 -44 -21 -43 -20 -70 -65 -74 -123 -4 -47 0 -57 49
-134 29 -46 58 -91 63 -100 6 -9 45 -70 88 -135 42 -65 77 -122 77 -128 0 -5
4 -9 8 -9 5 0 14 -11 20 -25 7 -14 17 -31 22 -38 15 -16 190 -287 190 -292 0
-2 11 -21 25 -41 14 -21 22 -41 18 -45 -8 -7 -28 -19 -133 -78 -25 -13 -48
-30 -52 -35 -5 -7 -8 -7 -8 -1 0 6 -3 6 -8 0 -9 -13 -193 -123 -206 -123 -5 0
-12 -5 -15 -10 -3 -5 -25 -20 -48 -33 -155 -88 -252 -154 -268 -182 -52 -87 0
-204 100 -225 49 -10 93 3 170 52 30 20 58 36 60 36 3 0 24 12 48 27 23 15 51
32 62 39 44 24 451 267 461 276 8 6 62 -70 170 -237 88 -134 164 -252 169
-262 6 -9 14 -22 18 -27 5 -6 42 -63 82 -126 40 -63 78 -120 84 -127 6 -7 11
-15 11 -18 0 -3 27 -47 60 -97 34 -49 60 -94 58 -99 -3 -8 -695 -429 -745
-453 -13 -6 -23 -14 -23 -18 0 -5 -5 -8 -11 -8 -7 0 -36 -16 -65 -35 -29 -19
-55 -35 -57 -35 -3 0 -34 -18 -68 -40 -35 -21 -89 -54 -119 -72 -30 -17 -67
-39 -81 -48 -14 -8 -43 -26 -66 -39 -74 -45 -104 -118 -78 -193 23 -68 114
-119 174 -97 45 16 111 52 122 66 6 7 16 13 21 13 5 0 57 30 116 66 114 70
112 69 212 128 36 21 74 44 85 51 11 7 24 12 29 13 5 0 12 5 15 10 3 5 25 20
48 33 24 13 181 107 350 209 168 102 309 186 312 187 3 2 38 -47 76 -108 39
-60 100 -156 136 -212 37 -56 110 -168 163 -250 53 -81 96 -149 96 -152 0 -3
23 -36 50 -75 28 -39 50 -73 50 -76 0 -3 14 -25 30 -49 34 -50 36 -60 13 -69
-9 -4 -86 -49 -172 -100 -86 -52 -170 -102 -188 -112 -17 -11 -84 -50 -148
-88 -173 -102 -196 -126 -201 -208 -4 -84 81 -161 167 -152 34 4 115 46 239
124 28 17 409 245 451 269 37 21 43 22 51 8 4 -9 16 -24 26 -33 9 -10 17 -20
16 -23 0 -3 23 -42 51 -86 221 -342 210 -330 299 -330 46 0 67 5 80 18 10 9
21 17 26 17 4 0 18 21 30 46 40 81 41 79 -206 458 -35 55 -64 102 -64 106 0 5
55 39 175 108 22 13 57 35 77 48 21 13 40 24 42 24 3 0 25 14 49 30 25 17 49
30 55 30 6 0 12 3 14 8 4 9 57 41 81 49 9 3 17 9 17 14 0 5 4 9 10 9 5 0 39
18 75 40 36 22 70 40 75 40 6 0 10 5 10 10 0 6 4 10 9 10 5 0 67 35 138 78 70
43 150 91 178 106 58 33 39 48 148 -119 40 -61 110 -169 157 -240 47 -72 87
-135 90 -140 3 -6 49 -77 103 -158 53 -81 97 -151 97 -154 0 -7 61 -63 69 -64
3 0 15 -3 26 -6 38 -10 87 -4 118 15 62 36 93 132 62 192 -18 35 -248 392
-490 760 -35 52 -61 98 -59 102 6 10 203 128 214 128 4 0 10 4 12 8 2 5 32 25
68 46 36 20 82 46 102 59 20 12 108 65 195 117 87 52 167 100 178 107 11 7 28
16 38 19 9 3 17 10 17 15 0 5 5 9 10 9 6 0 36 16 66 35 30 19 57 35 60 35 3 0
19 9 36 21 16 12 31 20 32 18 2 -2 49 -74 104 -159 56 -85 106 -160 111 -167
6 -7 11 -14 11 -17 0 -2 18 -32 40 -65 22 -33 40 -65 40 -71 0 -5 3 -10 8 -10
4 0 33 -42 65 -92 108 -174 130 -202 175 -225 40 -20 59 -21 119 -8 56 13 105
96 97 163 -4 32 -50 109 -210 352 -38 58 -71 110 -74 115 -4 9 -31 51 -148
231 -6 10 -25 39 -42 64 -22 35 -26 48 -17 56 18 17 336 204 346 204 5 0 11 3
13 8 2 4 51 36 111 71 99 59 155 106 158 134 8 65 4 101 -15 129 -35 52 -70
72 -129 72 -48 1 -63 -6 -181 -78 -191 -116 -209 -126 -228 -133 -10 -3 -18
-9 -18 -14 0 -5 -4 -9 -8 -9 -5 0 -57 -29 -117 -65 -110 -66 -125 -73 -125
-55 0 6 -5 16 -10 23 -6 7 -49 71 -95 142 -82 129 -140 217 -290 450 -43 66
-98 152 -123 190 -25 39 -58 89 -73 113 -16 24 -29 47 -29 51 0 5 70 51 156
102 85 52 172 104 192 116 20 13 66 39 102 59 36 21 67 40 70 44 3 4 25 17 50
31 25 13 47 27 50 30 3 4 23 16 45 28 22 12 47 26 55 31 30 19 197 120 275
166 110 65 130 91 129 171 0 58 -3 66 -34 98 -63 65 -137 68 -232 7 -15 -9
-87 -53 -160 -97 -73 -44 -142 -85 -153 -92 -11 -7 -27 -15 -35 -19 -8 -4 -17
-10 -20 -13 -8 -10 -64 -42 -82 -48 -10 -3 -18 -9 -18 -14 0 -5 -4 -9 -8 -9
-4 0 -131 -74 -282 -165 l-274 -164 -15 22 c-9 12 -16 24 -16 27 0 3 -8 16
-18 30 -10 14 -55 81 -99 150 -44 69 -110 171 -147 228 -36 56 -103 159 -148
230 -46 70 -86 132 -90 138 -5 5 -13 19 -20 30 -6 10 -28 45 -48 77 -21 32
-35 60 -34 62 5 4 187 114 214 129 86 48 321 192 323 198 2 4 8 8 12 8 20 0
137 76 168 108 65 69 40 192 -48 234 -64 31 -107 18 -294 -93 -94 -56 -187
-112 -207 -125 -19 -13 -40 -24 -46 -24 -6 0 -13 -3 -15 -8 -3 -8 -226 -142
-235 -142 -4 0 -14 -7 -24 -16 -16 -15 -21 -10 -78 75 -34 50 -61 95 -61 101
0 5 -4 10 -10 10 -5 0 -10 7 -10 15 0 8 -4 15 -9 15 -5 0 -16 16 -25 35 -9 19
-27 47 -41 63 -13 16 -22 32 -18 35 3 4 -2 9 -11 13 -9 3 -16 12 -16 18 0 7
-13 30 -30 52 -16 21 -30 43 -30 47 0 4 -5 13 -11 20 -6 7 -48 70 -93 140 -51
79 -97 137 -117 151 -40 26 -102 31 -145 12z m591 -1244 c14 -10 215 -321 215
-333 0 -5 4 -9 8 -9 5 0 14 -10 21 -22 6 -13 20 -36 31 -53 11 -16 25 -40 31
-52 7 -13 16 -23 21 -23 4 0 8 -5 8 -10 0 -6 26 -50 59 -99 32 -49 60 -93 62
-97 2 -5 39 -62 82 -127 42 -64 77 -122 77 -127 0 -6 5 -10 10 -10 6 0 10 -7
10 -15 0 -8 -5 -15 -10 -15 -6 0 -27 -11 -48 -24 -20 -13 -55 -35 -78 -48
-126 -72 -590 -354 -592 -360 -2 -5 -7 -8 -12 -8 -8 0 -230 -129 -240 -140
-15 -15 -54 -31 -59 -23 -22 31 -187 282 -196 298 -6 11 -54 85 -106 165 -53
80 -123 188 -157 240 -34 52 -66 100 -72 107 -5 6 -19 29 -31 50 -12 21 -35
57 -51 81 -17 24 -28 45 -26 46 7 5 114 70 143 86 17 9 72 43 123 74 51 31 97
56 102 56 6 0 10 5 10 10 0 6 4 10 9 10 10 0 182 100 191 111 3 3 30 19 60 36
30 17 98 56 150 88 52 32 115 69 140 83 25 14 56 33 69 44 26 20 31 21 46 10z
m-1186 -958 c66 -102 121 -189 121 -195 0 -5 4 -9 8 -9 5 0 14 -10 21 -22 20
-39 90 -147 101 -158 3 -3 11 -17 19 -32 8 -15 22 -37 33 -47 10 -11 18 -24
18 -28 0 -4 18 -33 40 -64 22 -32 40 -59 40 -62 0 -3 27 -45 60 -93 66 -96 66
-95 0 -132 -19 -11 -96 -57 -170 -102 -74 -45 -148 -90 -165 -100 -16 -9 -95
-57 -175 -105 -80 -48 -165 -99 -190 -113 -25 -13 -50 -28 -56 -33 -20 -16
-226 -139 -232 -139 -6 0 -32 38 -134 198 -10 15 -23 37 -29 50 -7 12 -16 22
-21 22 -4 0 -8 4 -8 10 0 5 -42 74 -93 152 -144 222 -251 386 -267 412 -8 14
-33 53 -56 88 l-41 64 200 120 c110 65 205 121 211 123 6 2 13 7 16 10 9 11
281 171 291 171 5 0 9 5 9 10 0 6 4 10 8 10 4 0 75 40 158 90 82 49 152 90
155 90 4 0 61 -84 128 -186z m2031 -341 c19 -32 39 -62 43 -68 5 -5 40 -59 79
-120 39 -60 92 -141 117 -180 25 -38 48 -74 51 -80 3 -5 27 -44 54 -85 27 -41
75 -115 107 -165 33 -49 63 -97 69 -105 64 -94 77 -119 67 -129 -6 -6 -14 -11
-18 -11 -5 0 -28 -13 -52 -30 -25 -16 -47 -30 -50 -30 -3 0 -34 -18 -68 -40
-35 -23 -76 -46 -91 -53 -16 -6 -28 -15 -28 -19 0 -4 -4 -8 -10 -8 -5 0 -34
-16 -64 -35 -30 -19 -58 -35 -61 -35 -3 0 -11 -5 -18 -11 -7 -5 -122 -76 -257
-156 -135 -79 -259 -153 -276 -164 l-31 -19 -35 53 c-96 140 -268 409 -268
416 0 5 -4 11 -8 13 -8 3 -162 235 -162 244 0 3 -5 10 -11 17 -5 7 -43 62 -83
124 l-73 112 23 16 c13 8 28 15 33 15 5 0 11 4 13 8 2 5 32 25 68 46 36 20
117 69 180 108 63 39 124 76 135 82 51 30 140 83 173 104 21 12 53 31 72 42
41 24 61 36 117 73 23 15 45 27 48 27 4 0 30 16 59 35 29 19 58 35 65 35 6 0
11 4 11 9 0 8 11 14 40 20 3 0 21 -25 40 -56z m-1293 -795 c27 -40 51 -74 56
-76 4 -2 7 -8 7 -13 0 -9 43 -79 63 -104 5 -5 46 -68 92 -140 46 -71 88 -135
94 -142 6 -7 11 -14 11 -17 0 -2 22 -37 48 -78 27 -40 50 -76 50 -81 1 -7 9
-17 38 -50 5 -7 13 -19 17 -27 14 -29 34 -60 48 -77 8 -10 27 -37 41 -59 l27
-41 -87 -52 c-89 -53 -96 -58 -167 -101 -22 -13 -50 -30 -63 -37 -13 -7 -130
-76 -260 -155 -130 -78 -291 -174 -357 -214 -111 -66 -145 -78 -145 -52 0 6
-16 33 -35 59 -19 27 -35 51 -35 54 0 3 -31 53 -70 110 -38 57 -70 107 -70
109 0 9 -64 101 -72 104 -5 2 -8 9 -8 16 0 7 -9 21 -20 31 -11 10 -20 22 -20
27 0 11 -52 92 -62 96 -5 2 -8 8 -8 12 0 5 -48 82 -106 171 -86 132 -103 164
-92 174 19 17 217 135 228 135 4 0 10 3 12 8 2 6 237 150 387 238 20 11 112
67 204 122 93 56 173 102 178 102 5 0 9 5 9 10 0 26 24 4 67 -62z"/>
</g>
</svg>
