<?xml version="1.0" encoding="UTF-8"?>
<svg id="Layer_1" data-name="Layer 1" xmlns="http://www.w3.org/2000/svg" viewBox="0 0 213.83 195.86">
  <defs>
    <style>
      .cls-1 {
        stroke-miterlimit: 10;
      }

      .cls-1, .cls-2 {
        fill: none;
        stroke: #000;
        stroke-width: 7.65px;
      }

      .cls-2 {
        stroke-linecap: round;
        stroke-linejoin: round;
      }
    </style>
  </defs>
  <path class="cls-1" d="m17.45,131.93c7.68,4.39,5.66,16.63,7.04,23.86,1.51,7.97,3.3,18.1,11.52,21.93,6.79,3.16,14.69.54,22.17.13,6.13-.33,12.35.91,17.88,3.58,5.37,2.59,10.08,6.49,15.63,8.69,10.32,4.11,22.99,1.42,30.75-6.52,3.22-3.29,5.79-7.48,9.97-9.39,2.43-1.11,5.17-1.32,7.84-1.25,4.57.12,9.12,1.05,13.37,2.72,3.79,1.49,7.4,3.58,11.41,4.24,7.29,1.21,15.14-3.04,18.11-9.81,2.63-5.99,1.88-13.66,6.56-18.24,2.61-2.55,6.35-3.5,9.54-5.28,12.6-7.03,10.03-20.23,8.42-31.86-1.24-9.01,2.49-18.05,2.34-27.15-.18-10.95-6.12-21.27-14.44-28.69-4.36-3.89-9.67-7.56-10.94-13.15-1.14-5.02,1.37-10.32.38-15.37-1.56-7.93-11.01-12.02-19.43-12.34-8.42-.32-16.93,1.81-25.24.53-1.36-.21-2.74-.52-3.87-1.27-1.77-1.18-2.63-3.21-3.77-4.95-4.74-7.22-14.93-9.65-23.73-8.04-8.23,1.5-13.98,6.25-21.32,9.48-7.16,3.16-14.1,1.98-21.92,2.67-6.82.61-14.25,3.49-16.85,9.58-2.06,4.83-.9,11.18-5.05,14.56-1.57,1.28-3.64,1.84-5.64,2.3-6.17,1.43-12.93,2.54-17.28,7-4.98,5.1-4.99,12.46-5.39,19.62-.1,1.85-.23,3.68-.47,5.46-1.95,14.18-12.31,27.09-11.12,41.32.34,4.08,1.79,8.26,4.98,10.95,2.47,2.08,5.72,3.07,8.55,4.68Z"/>
  <g>
    <polyline class="cls-2" points="147.54 157.67 131.72 133.35 111.59 102.42 91.24 71.15 69.08 37.12"/>
    <line class="cls-2" x1="109.59" y1="29.52" x2="178.43" y2="135.96"/>
    <polyline class="cls-2" points="42.51 66.25 60.89 94.66 84.42 131.05 107.55 166.81"/>
    <line class="cls-2" x1="174.04" y1="64.85" x2="43.9" y2="143.15"/>
    <polyline class="cls-2" points="78.82 164.96 98.68 153.09 131.72 133.35 164.18 113.94 182.01 103.29"/>
    <line class="cls-2" x1="144.47" y1="39.34" x2="37.64" y2="103.19"/>
  </g>
</svg>